# xmcd
#
# Track frame offsets:
#	150
#	13087
#	24666
#	36633
#	49546
#	66503
#	80835
#	91817
#	103218
#	116265
#	129073
#	142157
#	156187
#	169110
#	180411
#	193062
#	204569
#	216258
#	226875
#
# Disc length: 3153 seconds
#
# Revision: 0
# Processed by: cddbd v1.4PL0 Copyright (c) Steve Scherf et al.
# Submitted via: dBpowerAMP V4.0
#
DISCID=0e0c4f13
DTITLE=Roy Acuff - Tunes
DYEAR=1900
DGENRE=Country
TTITLE0=Blue Moon Of kentucky
TTITLE1=Fireball Mail
TTITLE2=Frieght Train Blues
TTITLE3=Ge=reat Speckled Bird
TTITLE4=I Saw The Light
TTITLE5=If I Could Hear Mother Pray Again
TTITLE6=life's Railway To Heaven
TTITLE7=Lord Build Me A Cabin
TTITLE8=Mule Skinner Blue's
TTITLE9=Night Train To Memphis
TTITLE10=Pins And Needles
TTITLE11=Remember Me
TTITLE12=Steel Guitar Blues
TTITLE13=The Old Age Pension Check
TTITLE14=The Titanic
TTITLE15=Wabash Cannonball
TTITLE16=Where The Soul Of Man Never Dies
TTITLE17=Wreck Of The Old 97
TTITLE18=Blue Eyes Crying In The Rain Ft Emmy Lou Harris
EXTD=
EXTT0=
EXTT1=
EXTT2=
EXTT3=
EXTT4=
EXTT5=
EXTT6=
EXTT7=
EXTT8=
EXTT9=
EXTT10=
EXTT11=
EXTT12=
EXTT13=
EXTT14=
EXTT15=
EXTT16=
EXTT17=
EXTT18=
PLAYORDER=
